<?xml version="1.0" encoding="UTF-8"?>
<svg xmlns="http://www.w3.org/2000/svg" xmlns:xlink="http://www.w3.org/1999/xlink" width="30px" height="30px" viewBox="0 0 30 30" version="1.1">
<g id="surface1">
<path style=" stroke:none;fill-rule:evenodd;fill:rgb(25.490196%,15.686275%,27.45098%);fill-opacity:1;" d="M 15.03125 0 L 1.015625 4.863281 L 3.019531 23.457031 L 15.03125 30 Z M 15.03125 0 "/>
<path style=" stroke:none;fill-rule:evenodd;fill:rgb(29.411765%,19.215686%,30.980392%);fill-opacity:1;" d="M 14.96875 0 L 28.984375 4.863281 L 26.980469 23.457031 L 14.96875 30 Z M 14.96875 0 "/>
<path style=" stroke:none;fill-rule:evenodd;fill:rgb(72.941176%,16.862745%,82.352941%);fill-opacity:1;" d="M 21.984375 10.265625 L 21.984375 10.257812 C 22.625 10.96875 22.953125 11.816406 22.96875 12.796875 C 22.988281 13.773438 22.65625 14.808594 21.976562 15.890625 C 22.484375 15.496094 23.074219 14.636719 23.742188 13.332031 C 24.027344 15.976562 22.960938 17.988281 20.523438 19.363281 C 21.300781 19.292969 22.332031 18.78125 23.613281 17.824219 C 22.246094 21.117188 19.734375 22.851562 16.078125 23.035156 C 12.539062 23.03125 10.25 20.90625 10.25 20.910156 C 8.796875 19.777344 7.796875 18.351562 7.253906 16.636719 C 6.382812 15.6875 6.375 15.585938 6.285156 15.207031 C 6.195312 14.828125 6.34375 14.722656 6.597656 14.351562 C 6.765625 14.101562 6.808594 13.746094 6.71875 13.289062 C 6.503906 12.988281 6.378906 12.519531 6.347656 11.878906 C 6.347656 11.566406 6.550781 11.242188 6.964844 10.898438 C 7.378906 10.554688 7.632812 10.289062 7.722656 10.109375 C 7.792969 10.011719 7.820312 9.582031 7.804688 8.820312 C 7.800781 8.074219 8.214844 7.667969 9.046875 7.601562 C 10.300781 7.5 11.003906 6.5625 11.398438 6.132812 C 11.660156 5.847656 12.046875 5.710938 12.535156 5.707031 C 13.222656 5.675781 13.851562 5.9375 14.390625 6.484375 C 15.734375 6.414062 17.109375 6.777344 18.503906 7.5625 C 20.488281 8.738281 21.570312 10.015625 21.75 11.378906 C 21.539062 13.179688 19.121094 13.132812 14.515625 11.238281 C 12.101562 11.921875 10.917969 13.402344 10.957031 15.679688 C 10.957031 17.769531 11.96875 19.285156 13.984375 20.230469 C 13 19.265625 12.582031 18.457031 12.722656 17.785156 C 14.769531 20.207031 17.097656 21.109375 19.707031 20.5 C 18.558594 20.539062 17.644531 20.167969 16.960938 19.382812 C 18.722656 19.339844 20.390625 18.523438 21.957031 16.917969 C 21.050781 17.636719 20.105469 17.910156 19.101562 17.738281 C 21.820312 15.605469 22.78125 13.113281 21.984375 10.265625 Z M 17.054688 9.9375 C 17.277344 9.9375 17.453125 9.757812 17.453125 9.539062 C 17.453125 9.316406 17.277344 9.140625 17.054688 9.140625 C 16.835938 9.140625 16.65625 9.316406 16.65625 9.539062 C 16.65625 9.757812 16.835938 9.9375 17.054688 9.9375 Z M 17.054688 9.9375 "/>
</g>
</svg>
